<?xml version="1.0" standalone="no"?>
<!DOCTYPE svg PUBLIC "-//W3C//DTD SVG 20010904//EN"
 "http://www.w3.org/TR/2001/REC-SVG-20010904/DTD/svg10.dtd">
<svg version="1.0" xmlns="http://www.w3.org/2000/svg"
 width="2024.000000pt" height="792.000000pt" viewBox="0 0 2024.000000 792.000000"
 preserveAspectRatio="xMidYMid meet">
<metadata>
Created by potrace 1.16, written by Peter Selinger 2001-2019
</metadata>
<g transform="translate(0.000000,792.000000) scale(0.100000,-0.100000)"
fill="#000000" stroke="none">
<path d="M0 5589 c0 -1981 2 -2330 14 -2326 38 15 625 165 866 221 1501 353
2994 524 4375 502 682 -10 1040 -35 1700 -117 1118 -140 2133 -390 3460 -853
165 -57 550 -192 855 -299 970 -340 1445 -489 2141 -676 761 -204 1617 -372
2449 -481 1487 -194 2714 -244 4338 -178 l42 2 0 63 c0 61 -1 63 -22 58 -122
-26 -1692 -38 -2163 -17 -1901 88 -3423 324 -5019 778 -662 188 -1029 310
-2371 784 -1091 385 -1851 606 -2635 765 -1289 261 -2621 347 -4035 259 -132
-8 -289 -19 -350 -25 -483 -44 -860 -89 -1244 -150 -139 -22 -255 -38 -257
-36 -6 6 319 60 711 117 899 131 1896 192 2795 171 1538 -38 2808 -249 4400
-733 140 -42 771 -240 1525 -479 416 -132 997 -298 1399 -400 2111 -535 4445
-747 6826 -619 206 11 390 22 408 25 l32 6 0 2984 0 2985 -10120 0 -10120 0 0
-2331z m15460 1248 c223 -120 448 -243 500 -272 52 -29 189 -103 303 -165 194
-105 210 -112 235 -100 15 6 139 72 275 147 l248 134 147 -79 c81 -44 192
-105 247 -135 55 -30 208 -113 340 -184 132 -72 310 -168 395 -215 85 -46 203
-111 263 -143 l107 -58 0 -813 0 -812 -187 -103 c-104 -56 -343 -186 -533
-289 -190 -103 -442 -240 -560 -305 l-215 -118 -95 50 c-52 28 -220 118 -373
202 -154 83 -284 151 -291 151 -6 0 -124 -61 -261 -136 -458 -250 -985 -535
-999 -540 -7 -3 -139 63 -292 146 -154 84 -409 222 -568 308 l-289 157 337 3
338 2 217 -116 c119 -65 223 -122 232 -127 12 -7 71 21 250 118 129 70 317
173 419 228 102 55 205 111 229 124 l43 25 -38 22 c-22 12 -112 61 -201 110
l-163 87 0 45 0 44 261 0 260 0 297 -161 c163 -89 384 -209 491 -267 l194
-106 31 18 c17 10 67 37 111 61 44 24 161 88 261 142 99 54 310 168 467 253
l287 155 -3 630 -2 629 -195 106 c-107 58 -367 199 -577 314 l-383 207 -342
-187 c-189 -102 -396 -215 -460 -250 -65 -35 -172 -93 -237 -129 l-119 -65
-72 -198 c-40 -108 -76 -201 -81 -206 -7 -9 -52 81 -129 259 -24 55 -47 104
-52 110 -4 5 -8 57 -8 115 l0 106 306 166 c294 160 305 167 282 181 -12 8
-138 76 -278 152 -140 76 -382 207 -538 292 -155 84 -287 153 -294 153 -13 0
-188 -95 -1383 -744 l-130 -71 -3 -153 c-1 -83 -6 -152 -11 -152 -4 0 -16 10
-27 21 -47 53 -165 110 -277 134 l-27 6 2 166 3 167 210 113 c116 63 352 191
525 285 333 180 834 452 1010 549 103 56 105 57 135 42 16 -9 212 -115 435
-236z m-1032 -818 c78 -38 120 -138 93 -222 -16 -47 -79 -103 -132 -117 -79
-21 -171 14 -216 81 -102 154 83 341 255 258z m-1700 -328 l-3 -300 50 48
c103 97 184 125 339 119 86 -3 110 -8 158 -31 78 -38 140 -110 170 -195 23
-66 23 -72 23 -512 l0 -445 -145 0 -145 0 -5 420 c-5 459 -5 456 -66 504 -34
27 -124 28 -171 3 -34 -18 -106 -84 -165 -150 l-38 -42 0 -370 0 -371 -147 3
-148 3 -3 808 -2 807 151 0 151 0 -4 -299z m4532 -152 c171 -47 275 -145 330
-309 24 -72 37 -219 26 -293 l-7 -47 -406 0 -406 0 7 -52 c15 -115 78 -197
186 -240 46 -19 74 -22 180 -22 116 0 299 23 358 45 l22 9 0 -114 0 -114 -87
-16 c-144 -26 -232 -35 -346 -36 -280 0 -460 94 -556 293 -50 103 -65 194 -58
342 4 85 12 127 33 185 95 264 269 388 544 389 77 1 125 -5 180 -20z m-2750
-474 l0 -475 180 0 181 0 -3 -107 -3 -108 -527 -3 -528 -3 0 111 0 110 198 2
197 3 3 363 2 362 -180 0 -180 0 0 110 0 110 330 0 330 0 0 -475z m866 438
c28 -67 164 -413 234 -598 37 -99 73 -193 80 -210 11 -30 12 -29 45 65 18 52
55 154 83 225 27 72 80 209 116 305 37 96 74 192 83 213 l16 37 160 0 c123 0
158 -3 154 -12 -3 -7 -41 -98 -85 -203 -164 -391 -196 -466 -289 -695 -52
-129 -99 -239 -103 -243 -9 -11 -341 -11 -350 0 -4 4 -53 118 -109 253 -57
135 -140 333 -186 440 -97 228 -185 444 -185 453 0 4 72 7 160 7 l160 0 16
-37z m-2236 -1448 c0 -143 -1 -154 -17 -148 -10 4 -21 11 -24 16 -4 6 -16 3
-30 -7 -70 -48 -138 9 -131 109 5 67 46 105 115 105 37 0 37 0 37 40 0 36 3
40 25 40 l25 0 0 -155z m1490 25 l0 -130 30 0 c23 0 30 -4 30 -20 0 -19 -7
-20 -100 -20 -93 0 -100 1 -100 20 0 17 7 20 40 20 l40 0 0 110 0 110 -35 0
c-28 0 -35 4 -35 20 0 18 7 20 65 20 l65 0 0 -130z m440 74 c0 -50 1 -54 16
-40 8 9 30 16 49 16 79 0 117 -124 58 -190 -31 -34 -85 -47 -147 -36 l-36 7 0
149 0 150 30 0 c30 0 30 0 30 -56z m-2452 -51 c3 -20 -1 -21 -42 -20 -56 2
-80 -18 -80 -69 0 -48 25 -67 82 -61 39 4 42 3 42 -19 0 -28 -32 -39 -92 -31
-74 10 -113 77 -88 153 17 50 61 75 125 72 43 -3 50 -6 53 -25z m253 -2 c23
-24 29 -38 29 -75 0 -62 -14 -92 -51 -112 -41 -21 -113 -14 -141 14 -26 25
-35 101 -18 142 16 39 53 59 108 60 35 0 49 -6 73 -29z m759 19 c26 -14 40
-63 40 -141 l0 -69 -29 0 -29 0 -3 80 c-5 93 -16 111 -53 86 -24 -15 -26 -22
-26 -91 l0 -75 -30 0 -30 0 0 105 0 105 25 0 c14 0 25 -5 25 -11 0 -5 10 -3
22 5 26 18 61 21 88 6z m249 4 c41 -5 61 -11 61 -20 0 -8 -8 -14 -18 -14 -15
0 -17 -6 -14 -34 5 -45 -33 -76 -95 -76 -67 0 -49 -23 28 -35 82 -14 89 -19
89 -60 0 -29 -6 -37 -32 -52 -43 -22 -127 -22 -161 0 -31 20 -34 42 -11 69 14
14 15 20 4 33 -10 12 -10 21 -2 40 6 14 9 38 6 55 -9 42 2 75 28 88 28 13 39
14 117 6z m535 0 c9 -3 16 -17 16 -29 0 -22 -3 -23 -32 -15 -61 18 -98 -7 -98
-68 0 -44 30 -66 85 -60 42 5 45 4 45 -18 0 -19 -7 -24 -36 -30 -54 -10 -106
2 -131 31 -46 53 -22 160 41 185 25 10 88 12 110 4z m-1074 -89 l0 -85 35 0
c28 0 35 -4 35 -20 0 -19 -7 -20 -100 -20 -93 0 -100 1 -100 20 0 16 7 20 35
20 l35 0 0 65 0 65 -30 0 c-23 0 -30 4 -30 20 0 18 7 20 60 20 l60 0 0 -85z
m1470 6 c0 -88 15 -116 48 -90 29 23 32 32 32 102 l0 67 30 0 30 0 0 -105 c0
-104 0 -105 -24 -105 -13 0 -26 6 -28 12 -3 9 -9 8 -22 -5 -24 -24 -78 -22
-102 4 -15 17 -20 40 -22 110 l-4 89 31 0 31 0 0 -79z"/>
<path d="M17030 5350 c-52 -7 -116 -38 -146 -72 -31 -33 -62 -100 -70 -147
l-7 -41 257 0 256 0 0 23 c0 78 -59 180 -122 213 -40 21 -113 31 -168 24z"/>
</g>
</svg>
