<svg xmlns="http://www.w3.org/2000/svg" width="56" height="56" viewBox="0 0 56 56">
  <g id="Group_129" data-name="Group 129" transform="translate(-1035 -900)">
    <circle id="Ellipse_6" data-name="Ellipse 6" cx="28" cy="28" r="28" transform="translate(1035 900)" fill="#b9620b"/>
    <path id="Icon_awesome-paper-plane" data-name="Icon awesome-paper-plane" d="M33.469.225.879,19.027a1.689,1.689,0,0,0,.155,3.038L8.508,25.2l20.2-17.8a.422.422,0,0,1,.6.584L12.375,28.617v5.66a1.687,1.687,0,0,0,2.988,1.111l4.465-5.435,8.761,3.67a1.692,1.692,0,0,0,2.32-1.28L35.972,1.969A1.688,1.688,0,0,0,33.469.225Z" transform="translate(1041.099 909.999)" fill="#f5f1f1"/>
  </g>
</svg>
